<svg xmlns="http://www.w3.org/2000/svg" width="612" height="285" viewBox="0 0 612 285" fill="none">
  <g filter="url(#filter0_d_42_31)">
    <path d="M27.5 11V243.295C27.5 247.351 25.0496 251.006 21.2971 252.546L7.4026 258.249C-2.73689 262.411 0.239281 277.5 11.1996 277.5H593C598.523 277.5 603 273.023 603 267.5V11C603 5.47715 598.523 1 593 1H37.5C31.9771 1 27.5 5.47716 27.5 11Z" fill="white"/>
    <path d="M27.5 11V243.295C27.5 247.351 25.0496 251.006 21.2971 252.546L7.4026 258.249C-2.73689 262.411 0.239281 277.5 11.1996 277.5H593C598.523 277.5 603 273.023 603 267.5V11C603 5.47715 598.523 1 593 1H37.5C31.9771 1 27.5 5.47716 27.5 11Z" stroke="#2D66AB" stroke-width="2"/>
  </g>
  <defs>
    <filter id="filter0_d_42_31" x="0.186218" y="0" width="611.814" height="284.5" filterUnits="userSpaceOnUse" color-interpolation-filters="sRGB">
      <feFlood flood-opacity="0" result="BackgroundImageFix"/>
      <feColorMatrix in="SourceAlpha" type="matrix" values="0 0 0 0 0 0 0 0 0 0 0 0 0 0 0 0 0 0 127 0" result="hardAlpha"/>
      <feOffset dx="8" dy="6"/>
      <feComposite in2="hardAlpha" operator="out"/>
      <feColorMatrix type="matrix" values="0 0 0 0 0.176471 0 0 0 0 0.4 0 0 0 0 0.670588 0 0 0 1 0"/>
      <feBlend mode="normal" in2="BackgroundImageFix" result="effect1_dropShadow_42_31"/>
      <feBlend mode="normal" in="SourceGraphic" in2="effect1_dropShadow_42_31" result="shape"/>
    </filter>
  </defs>
</svg>